# xmcd CD database file
#
# Track frame offsets:
#	150
#	18125
#	37175
#	52738
#
# Disc length: 940 seconds
#
# Revision: 0
# Processed by: cddbd v1.5.1PL2 Copyright (c) Steve Scherf et al.
# Submitted via: CDex 1.40Beta9
#
DISCID=2503aa04
DTITLE=TAKA+BA-K fromデリカテッセン - クリスマスキャロルの頃には
DYEAR=2005
DGENRE=J-Pop
TTITLE0=クリスマスキャロルの頃には
TTITLE1=クリスマスキャロルの頃には -JAXX'mas mix-
TTITLE2=クリスマスキャロルの頃には -Radio edit-
TTITLE3=クリスマスキャロルの頃には -Instrumental-
EXTD=YEAR: 2005/12/07
EXTT0=
EXTT1=
EXTT2=
EXTT3=
PLAYORDER=
